<?xml version="1.0" encoding="UTF-8" standalone="no"?><svg xmlns="http://www.w3.org/2000/svg" xmlns:xlink="http://www.w3.org/1999/xlink" contentScriptType="application/ecmascript" contentStyleType="text/css" height="1582px" preserveAspectRatio="none" style="width:1061px;height:1582px;background:#FFFFFF;" version="1.1" viewBox="0 0 1061 1582" width="1061px" zoomAndPan="magnify"><defs><filter height="300%" id="f11w3gf39urmz1" width="300%" x="-1" y="-1"><feGaussianBlur result="blurOut" stdDeviation="2.0"/><feColorMatrix in="blurOut" result="blurOut2" type="matrix" values="0 0 0 0 0 0 0 0 0 0 0 0 0 0 0 0 0 0 .4 0"/><feOffset dx="4.0" dy="4.0" in="blurOut2" result="blurOut3"/><feBlend in="SourceGraphic" in2="blurOut3" mode="normal"/></filter></defs><g><!--MD5=[6a3c4088f643aa37a2c7a619e8836f4e]
cluster znn_sdk_dart::src::abi::abi.dart--><polygon fill="#FFFFFF" filter="url(#f11w3gf39urmz1)" points="16,6,237,6,244,30.8672,430,30.8672,430,675,16,675,16,6" style="stroke:#000000;stroke-width:3.0;"/><line style="stroke:#000000;stroke-width:3.0;" x1="16" x2="244" y1="30.8672" y2="30.8672"/><text fill="#000000" font-family="sans-serif" font-size="15" font-weight="bold" lengthAdjust="spacing" textLength="215" x="20" y="23.5713">znn_sdk_dart::src::abi::abi.dart</text><!--MD5=[88800defd5cf0da6402680b8a08e2d76]
cluster znn_sdk_dart::src::abi::abi_types.dart--><polygon fill="#FFFFFF" filter="url(#f11w3gf39urmz1)" points="248,699,515,699,522,723.8672,1044,723.8672,1044,1575,248,1575,248,699" style="stroke:#000000;stroke-width:3.0;"/><line style="stroke:#000000;stroke-width:3.0;" x1="248" x2="522" y1="723.8672" y2="723.8672"/><text fill="#000000" font-family="sans-serif" font-size="15" font-weight="bold" lengthAdjust="spacing" textLength="261" x="252" y="716.5713">znn_sdk_dart::src::abi::abi_types.dart</text><!--MD5=[3fa6ef16226f055c4a75a6fd959a8a61]
class znn_sdk_dart::src::abi::abi.dart::TypeEnum--><rect codeLine="10" fill="#FEFECE" filter="url(#f11w3gf39urmz1)" height="89.5078" id="znn_sdk_dart::src::abi::abi.dart::TypeEnum" style="stroke:#A80036;stroke-width:2.0;" width="140" x="274" y="71"/><ellipse cx="314.2" cy="87" fill="#ADD1B2" rx="11" ry="11" style="stroke:#A80036;stroke-width:1.0;"/><path d="M316.9656,82.875 Q317.1219,82.6563 317.3094,82.5469 Q317.4969,82.4375 317.7156,82.4375 Q318.0906,82.4375 318.325,82.6953 Q318.5594,82.9531 318.5594,83.5625 L318.5594,85.0156 Q318.5594,85.625 318.325,85.8906 Q318.0906,86.1563 317.7156,86.1563 Q317.3719,86.1563 317.1688,85.9531 Q316.9656,85.7656 316.8563,85.25 Q316.8094,84.8906 316.6219,84.7031 Q316.2938,84.3281 315.6844,84.1094 Q315.075,83.8906 314.45,83.8906 Q313.6844,83.8906 313.0516,84.2188 Q312.4188,84.5469 311.9266,85.2969 Q311.4344,86.0469 311.4344,87.0781 L311.4344,88.1719 Q311.4344,89.4063 312.325,90.2266 Q313.2156,91.0469 314.8094,91.0469 Q315.7469,91.0469 316.4031,90.7969 Q316.7938,90.6406 317.2156,90.2031 Q317.4813,89.9375 317.6297,89.8594 Q317.7781,89.7813 317.9813,89.7813 Q318.3094,89.7813 318.5672,90.0391 Q318.825,90.2969 318.825,90.6406 Q318.825,90.9844 318.4813,91.3906 Q317.9813,91.9688 317.1844,92.2969 Q316.1063,92.75 314.8094,92.75 Q313.2938,92.75 312.0906,92.125 Q311.1063,91.625 310.4188,90.5547 Q309.7313,89.4844 309.7313,88.2031 L309.7313,87.0469 Q309.7313,85.7188 310.3484,84.5703 Q310.9656,83.4219 312.0594,82.8047 Q313.1531,82.1875 314.3875,82.1875 Q315.1219,82.1875 315.7703,82.3516 Q316.4188,82.5156 316.9656,82.875 Z " fill="#000000"/><text fill="#000000" font-family="sans-serif" font-size="10" lengthAdjust="spacing" textLength="52" x="333.8" y="91.0918">TypeEnum</text><line style="stroke:#A80036;stroke-width:2.0;" x1="275" x2="413" y1="103" y2="103"/><ellipse cx="285" cy="114" rx="3" ry="3" style="stroke:#038048;stroke-width:1.0;fill:none;"/><text fill="#000000" font-family="sans-serif" font-size="11" lengthAdjust="spacing" textLength="40" x="294" y="118.4189">int index</text><ellipse cx="285" cy="127.8359" rx="3" ry="3" style="stroke:#038048;stroke-width:1.0;fill:none;"/><text fill="#000000" font-family="sans-serif" font-size="11" lengthAdjust="spacing" text-decoration="underline" textLength="114" x="294" y="132.2549">List&lt;TypeEnum&gt; values</text><ellipse cx="285" cy="141.6719" rx="3" ry="3" style="stroke:#038048;stroke-width:1.0;fill:none;"/><text fill="#000000" font-family="sans-serif" font-size="11" lengthAdjust="spacing" text-decoration="underline" textLength="92" x="294" y="146.0908">TypeEnum function</text><line style="stroke:#A80036;stroke-width:2.0;" x1="275" x2="413" y1="152.5078" y2="152.5078"/><!--MD5=[3ab19db58805c2d0b77c869118599814]
class znn_sdk_dart::src::abi::abi.dart::Param--><rect codeLine="18" fill="#FEFECE" filter="url(#f11w3gf39urmz1)" height="117.1797" id="znn_sdk_dart::src::abi::abi.dart::Param" style="stroke:#A80036;stroke-width:2.0;" width="159" x="38.5" y="223.5"/><ellipse cx="98.25" cy="239.5" fill="#ADD1B2" rx="11" ry="11" style="stroke:#A80036;stroke-width:1.0;"/><path d="M101.0156,235.375 Q101.1719,235.1563 101.3594,235.0469 Q101.5469,234.9375 101.7656,234.9375 Q102.1406,234.9375 102.375,235.1953 Q102.6094,235.4531 102.6094,236.0625 L102.6094,237.5156 Q102.6094,238.125 102.375,238.3906 Q102.1406,238.6563 101.7656,238.6563 Q101.4219,238.6563 101.2188,238.4531 Q101.0156,238.2656 100.9063,237.75 Q100.8594,237.3906 100.6719,237.2031 Q100.3438,236.8281 99.7344,236.6094 Q99.125,236.3906 98.5,236.3906 Q97.7344,236.3906 97.1016,236.7188 Q96.4688,237.0469 95.9766,237.7969 Q95.4844,238.5469 95.4844,239.5781 L95.4844,240.6719 Q95.4844,241.9063 96.375,242.7266 Q97.2656,243.5469 98.8594,243.5469 Q99.7969,243.5469 100.4531,243.2969 Q100.8438,243.1406 101.2656,242.7031 Q101.5313,242.4375 101.6797,242.3594 Q101.8281,242.2813 102.0313,242.2813 Q102.3594,242.2813 102.6172,242.5391 Q102.875,242.7969 102.875,243.1406 Q102.875,243.4844 102.5313,243.8906 Q102.0313,244.4688 101.2344,244.7969 Q100.1563,245.25 98.8594,245.25 Q97.3438,245.25 96.1406,244.625 Q95.1563,244.125 94.4688,243.0547 Q93.7813,241.9844 93.7813,240.7031 L93.7813,239.5469 Q93.7813,238.2188 94.3984,237.0703 Q95.0156,235.9219 96.1094,235.3047 Q97.2031,234.6875 98.4375,234.6875 Q99.1719,234.6875 99.8203,234.8516 Q100.4688,235.0156 101.0156,235.375 Z " fill="#000000"/><text fill="#000000" font-family="sans-serif" font-size="10" lengthAdjust="spacing" textLength="31" x="118.75" y="243.5918">Param</text><line style="stroke:#A80036;stroke-width:2.0;" x1="39.5" x2="196.5" y1="255.5" y2="255.5"/><ellipse cx="49.5" cy="266.5" rx="3" ry="3" style="stroke:#038048;stroke-width:1.0;fill:none;"/><text fill="#000000" font-family="sans-serif" font-size="11" lengthAdjust="spacing" textLength="61" x="58.5" y="270.9189">bool indexed</text><ellipse cx="49.5" cy="280.3359" rx="3" ry="3" style="stroke:#038048;stroke-width:1.0;fill:none;"/><text fill="#000000" font-family="sans-serif" font-size="11" lengthAdjust="spacing" textLength="63" x="58.5" y="284.7549">String? name</text><ellipse cx="49.5" cy="294.1719" rx="3" ry="3" style="stroke:#038048;stroke-width:1.0;fill:none;"/><text fill="#000000" font-family="sans-serif" font-size="11" lengthAdjust="spacing" textLength="64" x="58.5" y="298.5908">AbiType type</text><line style="stroke:#A80036;stroke-width:2.0;" x1="39.5" x2="196.5" y1="305.0078" y2="305.0078"/><ellipse cx="49.5" cy="316.0078" fill="#84BE84" rx="3" ry="3" style="stroke:#038048;stroke-width:1.0;"/><text fill="#000000" font-family="sans-serif" font-size="11" lengthAdjust="spacing" text-decoration="underline" textLength="133" x="58.5" y="320.4268">List&lt;dynamic&gt; decodeList()</text><ellipse cx="49.5" cy="329.8438" fill="#84BE84" rx="3" ry="3" style="stroke:#038048;stroke-width:1.0;"/><text fill="#000000" font-family="sans-serif" font-size="11" lengthAdjust="spacing" textLength="76" x="58.5" y="334.2627">String toString()</text><!--MD5=[2e5a135a77ff86af6e31a482b328856c]
class znn_sdk_dart::src::abi::abi.dart::Entry--><rect codeLine="28" fill="#FEFECE" filter="url(#f11w3gf39urmz1)" height="144.8516" id="znn_sdk_dart::src::abi::abi.dart::Entry" style="stroke:#A80036;stroke-width:2.0;" width="172" x="32" y="43.5"/><ellipse cx="101.75" cy="59.5" fill="#ADD1B2" rx="11" ry="11" style="stroke:#A80036;stroke-width:1.0;"/><path d="M104.5156,55.375 Q104.6719,55.1563 104.8594,55.0469 Q105.0469,54.9375 105.2656,54.9375 Q105.6406,54.9375 105.875,55.1953 Q106.1094,55.4531 106.1094,56.0625 L106.1094,57.5156 Q106.1094,58.125 105.875,58.3906 Q105.6406,58.6563 105.2656,58.6563 Q104.9219,58.6563 104.7188,58.4531 Q104.5156,58.2656 104.4063,57.75 Q104.3594,57.3906 104.1719,57.2031 Q103.8438,56.8281 103.2344,56.6094 Q102.625,56.3906 102,56.3906 Q101.2344,56.3906 100.6016,56.7188 Q99.9688,57.0469 99.4766,57.7969 Q98.9844,58.5469 98.9844,59.5781 L98.9844,60.6719 Q98.9844,61.9063 99.875,62.7266 Q100.7656,63.5469 102.3594,63.5469 Q103.2969,63.5469 103.9531,63.2969 Q104.3438,63.1406 104.7656,62.7031 Q105.0313,62.4375 105.1797,62.3594 Q105.3281,62.2813 105.5313,62.2813 Q105.8594,62.2813 106.1172,62.5391 Q106.375,62.7969 106.375,63.1406 Q106.375,63.4844 106.0313,63.8906 Q105.5313,64.4688 104.7344,64.7969 Q103.6563,65.25 102.3594,65.25 Q100.8438,65.25 99.6406,64.625 Q98.6563,64.125 97.9688,63.0547 Q97.2813,61.9844 97.2813,60.7031 L97.2813,59.5469 Q97.2813,58.2188 97.8984,57.0703 Q98.5156,55.9219 99.6094,55.3047 Q100.7031,54.6875 101.9375,54.6875 Q102.6719,54.6875 103.3203,54.8516 Q103.9688,55.0156 104.5156,55.375 Z " fill="#000000"/><text fill="#000000" font-family="sans-serif" font-size="10" lengthAdjust="spacing" textLength="24" x="122.25" y="63.5918">Entry</text><line style="stroke:#A80036;stroke-width:2.0;" x1="33" x2="203" y1="75.5" y2="75.5"/><ellipse cx="43" cy="86.5" rx="3" ry="3" style="stroke:#038048;stroke-width:1.0;fill:none;"/><text fill="#000000" font-family="sans-serif" font-size="11" lengthAdjust="spacing" textLength="63" x="52" y="90.9189">String? name</text><ellipse cx="43" cy="100.3359" rx="3" ry="3" style="stroke:#038048;stroke-width:1.0;fill:none;"/><text fill="#000000" font-family="sans-serif" font-size="11" lengthAdjust="spacing" textLength="97" x="52" y="104.7549">List&lt;Param&gt;? inputs</text><ellipse cx="43" cy="114.1719" rx="3" ry="3" style="stroke:#038048;stroke-width:1.0;fill:none;"/><text fill="#000000" font-family="sans-serif" font-size="11" lengthAdjust="spacing" textLength="80" x="52" y="118.5908">TypeEnum? type</text><line style="stroke:#A80036;stroke-width:2.0;" x1="33" x2="203" y1="125.0078" y2="125.0078"/><ellipse cx="43" cy="136.0078" fill="#84BE84" rx="3" ry="3" style="stroke:#038048;stroke-width:1.0;"/><text fill="#000000" font-family="sans-serif" font-size="11" lengthAdjust="spacing" textLength="116" x="52" y="140.4268">String formatSignature()</text><ellipse cx="43" cy="149.8438" fill="#84BE84" rx="3" ry="3" style="stroke:#038048;stroke-width:1.0;"/><text fill="#000000" font-family="sans-serif" font-size="11" lengthAdjust="spacing" textLength="146" x="52" y="154.2627">List&lt;int&gt; fingerprintSignature()</text><ellipse cx="43" cy="163.6797" fill="#84BE84" rx="3" ry="3" style="stroke:#038048;stroke-width:1.0;"/><text fill="#000000" font-family="sans-serif" font-size="11" lengthAdjust="spacing" textLength="133" x="52" y="168.0986">List&lt;int&gt; encodeSignature()</text><ellipse cx="43" cy="177.5156" fill="#84BE84" rx="3" ry="3" style="stroke:#038048;stroke-width:1.0;"/><text fill="#000000" font-family="sans-serif" font-size="11" lengthAdjust="spacing" textLength="140" x="52" y="181.9346">List&lt;int&gt; encodeArguments()</text><!--MD5=[a9ddf7e1fb28b75e9c0ecde7aba77736]
class znn_sdk_dart::src::abi::abi.dart::AbiFunction--><rect codeLine="40" fill="#FEFECE" filter="url(#f11w3gf39urmz1)" height="131.0156" id="znn_sdk_dart::src::abi::abi.dart::AbiFunction" style="stroke:#A80036;stroke-width:2.0;" width="164" x="36" y="375.5"/><ellipse cx="84.75" cy="391.5" fill="#ADD1B2" rx="11" ry="11" style="stroke:#A80036;stroke-width:1.0;"/><path d="M87.5156,387.375 Q87.6719,387.1563 87.8594,387.0469 Q88.0469,386.9375 88.2656,386.9375 Q88.6406,386.9375 88.875,387.1953 Q89.1094,387.4531 89.1094,388.0625 L89.1094,389.5156 Q89.1094,390.125 88.875,390.3906 Q88.6406,390.6563 88.2656,390.6563 Q87.9219,390.6563 87.7188,390.4531 Q87.5156,390.2656 87.4063,389.75 Q87.3594,389.3906 87.1719,389.2031 Q86.8438,388.8281 86.2344,388.6094 Q85.625,388.3906 85,388.3906 Q84.2344,388.3906 83.6016,388.7188 Q82.9688,389.0469 82.4766,389.7969 Q81.9844,390.5469 81.9844,391.5781 L81.9844,392.6719 Q81.9844,393.9063 82.875,394.7266 Q83.7656,395.5469 85.3594,395.5469 Q86.2969,395.5469 86.9531,395.2969 Q87.3438,395.1406 87.7656,394.7031 Q88.0313,394.4375 88.1797,394.3594 Q88.3281,394.2813 88.5313,394.2813 Q88.8594,394.2813 89.1172,394.5391 Q89.375,394.7969 89.375,395.1406 Q89.375,395.4844 89.0313,395.8906 Q88.5313,396.4688 87.7344,396.7969 Q86.6563,397.25 85.3594,397.25 Q83.8438,397.25 82.6406,396.625 Q81.6563,396.125 80.9688,395.0547 Q80.2813,393.9844 80.2813,392.7031 L80.2813,391.5469 Q80.2813,390.2188 80.8984,389.0703 Q81.5156,387.9219 82.6094,387.3047 Q83.7031,386.6875 84.9375,386.6875 Q85.6719,386.6875 86.3203,386.8516 Q86.9688,387.0156 87.5156,387.375 Z " fill="#000000"/><text fill="#000000" font-family="sans-serif" font-size="10" lengthAdjust="spacing" textLength="58" x="105.25" y="395.5918">AbiFunction</text><line style="stroke:#A80036;stroke-width:2.0;" x1="37" x2="199" y1="407.5" y2="407.5"/><ellipse cx="47" cy="418.5" rx="3" ry="3" style="stroke:#038048;stroke-width:1.0;fill:none;"/><text fill="#000000" font-family="sans-serif" font-size="11" lengthAdjust="spacing" text-decoration="underline" textLength="138" x="56" y="422.9189">int ENCODED_SIGN_LENGTH</text><line style="stroke:#A80036;stroke-width:2.0;" x1="37" x2="199" y1="429.3359" y2="429.3359"/><ellipse cx="47" cy="440.3359" fill="#84BE84" rx="3" ry="3" style="stroke:#038048;stroke-width:1.0;"/><text fill="#000000" font-family="sans-serif" font-size="11" lengthAdjust="spacing" textLength="116" x="56" y="444.7549">List&lt;dynamic&gt; decode()</text><ellipse cx="47" cy="454.1719" fill="#84BE84" rx="3" ry="3" style="stroke:#038048;stroke-width:1.0;"/><text fill="#000000" font-family="sans-serif" font-size="11" lengthAdjust="spacing" textLength="87" x="56" y="458.5908">List&lt;int&gt; encode()</text><ellipse cx="47" cy="468.0078" fill="#84BE84" rx="3" ry="3" style="stroke:#038048;stroke-width:1.0;"/><text fill="#000000" font-family="sans-serif" font-size="11" lengthAdjust="spacing" textLength="133" x="56" y="472.4268">List&lt;int&gt; encodeSignature()</text><ellipse cx="47" cy="481.8438" fill="#84BE84" rx="3" ry="3" style="stroke:#038048;stroke-width:1.0;"/><text fill="#000000" font-family="sans-serif" font-size="11" lengthAdjust="spacing" text-decoration="underline" textLength="131" x="56" y="486.2627">List&lt;int&gt; extractSignature()</text><ellipse cx="47" cy="495.6797" fill="#84BE84" rx="3" ry="3" style="stroke:#038048;stroke-width:1.0;"/><text fill="#000000" font-family="sans-serif" font-size="11" lengthAdjust="spacing" textLength="76" x="56" y="500.0986">String toString()</text><!--MD5=[e962b1412943104bfbcc9c065962efe1]
class znn_sdk_dart::src::abi::abi.dart::Abi--><rect codeLine="49" fill="#FEFECE" filter="url(#f11w3gf39urmz1)" height="117.1797" id="znn_sdk_dart::src::abi::abi.dart::Abi" style="stroke:#A80036;stroke-width:2.0;" width="158" x="39" y="541.5"/><ellipse cx="105.75" cy="557.5" fill="#ADD1B2" rx="11" ry="11" style="stroke:#A80036;stroke-width:1.0;"/><path d="M108.5156,553.375 Q108.6719,553.1563 108.8594,553.0469 Q109.0469,552.9375 109.2656,552.9375 Q109.6406,552.9375 109.875,553.1953 Q110.1094,553.4531 110.1094,554.0625 L110.1094,555.5156 Q110.1094,556.125 109.875,556.3906 Q109.6406,556.6563 109.2656,556.6563 Q108.9219,556.6563 108.7188,556.4531 Q108.5156,556.2656 108.4063,555.75 Q108.3594,555.3906 108.1719,555.2031 Q107.8438,554.8281 107.2344,554.6094 Q106.625,554.3906 106,554.3906 Q105.2344,554.3906 104.6016,554.7188 Q103.9688,555.0469 103.4766,555.7969 Q102.9844,556.5469 102.9844,557.5781 L102.9844,558.6719 Q102.9844,559.9063 103.875,560.7266 Q104.7656,561.5469 106.3594,561.5469 Q107.2969,561.5469 107.9531,561.2969 Q108.3438,561.1406 108.7656,560.7031 Q109.0313,560.4375 109.1797,560.3594 Q109.3281,560.2813 109.5313,560.2813 Q109.8594,560.2813 110.1172,560.5391 Q110.375,560.7969 110.375,561.1406 Q110.375,561.4844 110.0313,561.8906 Q109.5313,562.4688 108.7344,562.7969 Q107.6563,563.25 106.3594,563.25 Q104.8438,563.25 103.6406,562.625 Q102.6563,562.125 101.9688,561.0547 Q101.2813,559.9844 101.2813,558.7031 L101.2813,557.5469 Q101.2813,556.2188 101.8984,555.0703 Q102.5156,553.9219 103.6094,553.3047 Q104.7031,552.6875 105.9375,552.6875 Q106.6719,552.6875 107.3203,552.8516 Q107.9688,553.0156 108.5156,553.375 Z " fill="#000000"/><text fill="#000000" font-family="sans-serif" font-size="10" lengthAdjust="spacing" textLength="16" x="126.25" y="561.5918">Abi</text><line style="stroke:#A80036;stroke-width:2.0;" x1="40" x2="196" y1="573.5" y2="573.5"/><ellipse cx="50" cy="584.5" rx="3" ry="3" style="stroke:#038048;stroke-width:1.0;fill:none;"/><text fill="#000000" font-family="sans-serif" font-size="11" lengthAdjust="spacing" textLength="90" x="59" y="588.9189">List&lt;Entry&gt; entries</text><line style="stroke:#A80036;stroke-width:2.0;" x1="40" x2="196" y1="595.3359" y2="595.3359"/><rect fill="#F24D5C" height="6" style="stroke:#C82930;stroke-width:1.0;" width="6" x="47" y="603.3359"/><text fill="#000000" font-family="sans-serif" font-size="11" lengthAdjust="spacing" text-decoration="underline" textLength="132" x="59" y="610.7549">List&lt;Entry&gt; _parseEntries()</text><ellipse cx="50" cy="620.1719" fill="#84BE84" rx="3" ry="3" style="stroke:#038048;stroke-width:1.0;"/><text fill="#000000" font-family="sans-serif" font-size="11" lengthAdjust="spacing" textLength="128" x="59" y="624.5908">List&lt;int&gt; encodeFunction()</text><ellipse cx="50" cy="634.0078" fill="#84BE84" rx="3" ry="3" style="stroke:#038048;stroke-width:1.0;"/><text fill="#000000" font-family="sans-serif" font-size="11" lengthAdjust="spacing" textLength="128" x="59" y="638.4268">dynamic decodeFunction()</text><ellipse cx="50" cy="647.8438" fill="#84BE84" rx="3" ry="3" style="stroke:#038048;stroke-width:1.0;"/><text fill="#000000" font-family="sans-serif" font-size="11" lengthAdjust="spacing" textLength="76" x="59" y="652.2627">String toString()</text><!--MD5=[2ef03821737be1def0138ec1d3833096]
class znn_sdk_dart::src::abi::abi_types.dart::AbiType--><rect codeLine="145" fill="#FEFECE" filter="url(#f11w3gf39urmz1)" height="186.3594" id="znn_sdk_dart::src::abi::abi_types.dart::AbiType" style="stroke:#A80036;stroke-width:2.0;" width="160" x="264" y="1373"/><ellipse cx="320.25" cy="1389" fill="#A9DCDF" rx="11" ry="11" style="stroke:#A80036;stroke-width:1.0;"/><path d="M322.4375,1390.7656 L318.2969,1390.7656 L317.875,1391.7969 L318.2969,1391.7969 Q318.9063,1391.7969 319.1719,1392.0313 Q319.4375,1392.2656 319.4375,1392.6563 Q319.4375,1393.0313 319.1719,1393.2656 Q318.9063,1393.5 318.2969,1393.5 L316,1393.5 Q315.3906,1393.5 315.1328,1393.2656 Q314.875,1393.0313 314.875,1392.6406 Q314.875,1392.2656 315.1484,1392.0234 Q315.4219,1391.7813 316.0469,1391.7969 L318.7188,1385.1406 L317.6094,1385.1406 Q317,1385.1406 316.7344,1384.9063 Q316.4688,1384.6719 316.4688,1384.2813 Q316.4688,1383.9063 316.7344,1383.6719 Q317,1383.4375 317.6094,1383.4375 L321.2813,1383.4375 L324.6719,1391.7969 Q325.2656,1391.7969 325.4531,1391.9375 Q325.8438,1392.2031 325.8438,1392.6563 Q325.8438,1393.0313 325.5859,1393.2656 Q325.3281,1393.5 324.7188,1393.5 L322.4219,1393.5 Q321.8125,1393.5 321.5469,1393.2656 Q321.2813,1393.0313 321.2813,1392.6406 Q321.2813,1392.2656 321.5469,1392.0313 Q321.8125,1391.7969 322.4219,1391.7969 L322.8438,1391.7969 L322.4375,1390.7656 Z M321.7188,1389.0625 L320.3594,1385.6875 L318.9844,1389.0625 L321.7188,1389.0625 Z " fill="#000000"/><text fill="#000000" font-family="sans-serif" font-size="10" font-style="italic" lengthAdjust="spacing" textLength="39" x="340.75" y="1393.0918">AbiType</text><line style="stroke:#A80036;stroke-width:2.0;" x1="265" x2="423" y1="1405" y2="1405"/><ellipse cx="275" cy="1416" rx="3" ry="3" style="stroke:#038048;stroke-width:1.0;fill:none;"/><text fill="#000000" font-family="sans-serif" font-size="11" lengthAdjust="spacing" text-decoration="underline" textLength="58" x="284" y="1420.4189">int Int32Size</text><ellipse cx="275" cy="1429.8359" rx="3" ry="3" style="stroke:#038048;stroke-width:1.0;fill:none;"/><text fill="#000000" font-family="sans-serif" font-size="11" lengthAdjust="spacing" textLength="63" x="284" y="1434.2549">String? name</text><line style="stroke:#A80036;stroke-width:2.0;" x1="265" x2="423" y1="1440.6719" y2="1440.6719"/><ellipse cx="275" cy="1451.6719" fill="#84BE84" rx="3" ry="3" style="stroke:#038048;stroke-width:1.0;"/><text fill="#000000" font-family="sans-serif" font-size="11" lengthAdjust="spacing" textLength="87" x="284" y="1456.0908">String? getName()</text><ellipse cx="275" cy="1465.5078" fill="#84BE84" rx="3" ry="3" style="stroke:#038048;stroke-width:1.0;"/><text fill="#000000" font-family="sans-serif" font-size="11" lengthAdjust="spacing" textLength="134" x="284" y="1469.9268">String? getCanonicalName()</text><ellipse cx="275" cy="1479.3438" fill="#84BE84" rx="3" ry="3" style="stroke:#038048;stroke-width:1.0;"/><text fill="#000000" font-family="sans-serif" font-size="11" lengthAdjust="spacing" text-decoration="underline" textLength="90" x="284" y="1483.7627">AbiType getType()</text><ellipse cx="275" cy="1493.1797" fill="#84BE84" rx="3" ry="3" style="stroke:#038048;stroke-width:1.0;"/><text fill="#000000" font-family="sans-serif" font-size="11" lengthAdjust="spacing" textLength="87" x="284" y="1497.5986">List&lt;int&gt; encode()</text><ellipse cx="275" cy="1507.0156" fill="#84BE84" rx="3" ry="3" style="stroke:#038048;stroke-width:1.0;"/><text fill="#000000" font-family="sans-serif" font-size="11" lengthAdjust="spacing" textLength="87" x="284" y="1511.4346">dynamic decode()</text><ellipse cx="275" cy="1520.8516" fill="#84BE84" rx="3" ry="3" style="stroke:#038048;stroke-width:1.0;"/><text fill="#000000" font-family="sans-serif" font-size="11" lengthAdjust="spacing" textLength="90" x="284" y="1525.2705">int? getFixedSize()</text><ellipse cx="275" cy="1534.6875" fill="#84BE84" rx="3" ry="3" style="stroke:#038048;stroke-width:1.0;"/><text fill="#000000" font-family="sans-serif" font-size="11" lengthAdjust="spacing" textLength="104" x="284" y="1539.1064">bool isDynamicType()</text><ellipse cx="275" cy="1548.5234" fill="#84BE84" rx="3" ry="3" style="stroke:#038048;stroke-width:1.0;"/><text fill="#000000" font-family="sans-serif" font-size="11" lengthAdjust="spacing" textLength="76" x="284" y="1552.9424">String toString()</text><!--MD5=[c3618ef60f6041969c8f1bc655c197e7]
class znn_sdk_dart::src::abi::abi_types.dart::IntType--><rect codeLine="57" fill="#FEFECE" filter="url(#f11w3gf39urmz1)" height="131.0156" id="znn_sdk_dart::src::abi::abi_types.dart::IntType" style="stroke:#A80036;stroke-width:2.0;" width="160" x="264" y="1206.5"/><ellipse cx="321.75" cy="1222.5" fill="#ADD1B2" rx="11" ry="11" style="stroke:#A80036;stroke-width:1.0;"/><path d="M324.5156,1218.375 Q324.6719,1218.1563 324.8594,1218.0469 Q325.0469,1217.9375 325.2656,1217.9375 Q325.6406,1217.9375 325.875,1218.1953 Q326.1094,1218.4531 326.1094,1219.0625 L326.1094,1220.5156 Q326.1094,1221.125 325.875,1221.3906 Q325.6406,1221.6563 325.2656,1221.6563 Q324.9219,1221.6563 324.7188,1221.4531 Q324.5156,1221.2656 324.4063,1220.75 Q324.3594,1220.3906 324.1719,1220.2031 Q323.8438,1219.8281 323.2344,1219.6094 Q322.625,1219.3906 322,1219.3906 Q321.2344,1219.3906 320.6016,1219.7188 Q319.9688,1220.0469 319.4766,1220.7969 Q318.9844,1221.5469 318.9844,1222.5781 L318.9844,1223.6719 Q318.9844,1224.9063 319.875,1225.7266 Q320.7656,1226.5469 322.3594,1226.5469 Q323.2969,1226.5469 323.9531,1226.2969 Q324.3438,1226.1406 324.7656,1225.7031 Q325.0313,1225.4375 325.1797,1225.3594 Q325.3281,1225.2813 325.5313,1225.2813 Q325.8594,1225.2813 326.1172,1225.5391 Q326.375,1225.7969 326.375,1226.1406 Q326.375,1226.4844 326.0313,1226.8906 Q325.5313,1227.4688 324.7344,1227.7969 Q323.6563,1228.25 322.3594,1228.25 Q320.8438,1228.25 319.6406,1227.625 Q318.6563,1227.125 317.9688,1226.0547 Q317.2813,1224.9844 317.2813,1223.7031 L317.2813,1222.5469 Q317.2813,1221.2188 317.8984,1220.0703 Q318.5156,1218.9219 319.6094,1218.3047 Q320.7031,1217.6875 321.9375,1217.6875 Q322.6719,1217.6875 323.3203,1217.8516 Q323.9688,1218.0156 324.5156,1218.375 Z " fill="#000000"/><text fill="#000000" font-family="sans-serif" font-size="10" lengthAdjust="spacing" textLength="36" x="342.25" y="1226.5918">IntType</text><line style="stroke:#A80036;stroke-width:2.0;" x1="265" x2="423" y1="1238.5" y2="1238.5"/><line style="stroke:#A80036;stroke-width:2.0;" x1="265" x2="423" y1="1246.5" y2="1246.5"/><ellipse cx="275" cy="1257.5" fill="#84BE84" rx="3" ry="3" style="stroke:#038048;stroke-width:1.0;"/><text fill="#000000" font-family="sans-serif" font-size="11" lengthAdjust="spacing" textLength="134" x="284" y="1261.9189">String? getCanonicalName()</text><ellipse cx="275" cy="1271.3359" fill="#84BE84" rx="3" ry="3" style="stroke:#038048;stroke-width:1.0;"/><text fill="#000000" font-family="sans-serif" font-size="11" lengthAdjust="spacing" text-decoration="underline" textLength="98" x="284" y="1275.7549">List&lt;int&gt; encodeInt()</text><ellipse cx="275" cy="1285.1719" fill="#84BE84" rx="3" ry="3" style="stroke:#038048;stroke-width:1.0;"/><text fill="#000000" font-family="sans-serif" font-size="11" lengthAdjust="spacing" text-decoration="underline" textLength="113" x="284" y="1289.5908">List&lt;int&gt; encodeIntBig()</text><ellipse cx="275" cy="1299.0078" fill="#84BE84" rx="3" ry="3" style="stroke:#038048;stroke-width:1.0;"/><text fill="#000000" font-family="sans-serif" font-size="11" lengthAdjust="spacing" text-decoration="underline" textLength="84" x="284" y="1303.4268">BigInt decodeInt()</text><ellipse cx="275" cy="1312.8438" fill="#84BE84" rx="3" ry="3" style="stroke:#038048;stroke-width:1.0;"/><text fill="#000000" font-family="sans-serif" font-size="11" lengthAdjust="spacing" textLength="87" x="284" y="1317.2627">List&lt;int&gt; encode()</text><ellipse cx="275" cy="1326.6797" fill="#84BE84" rx="3" ry="3" style="stroke:#038048;stroke-width:1.0;"/><text fill="#000000" font-family="sans-serif" font-size="11" lengthAdjust="spacing" textLength="87" x="284" y="1331.0986">dynamic decode()</text><!--MD5=[50248c182e5aa215401232efea6ed952]
class znn_sdk_dart::src::abi::abi_types.dart::ArrayType--><rect codeLine="66" fill="#FEFECE" filter="url(#f11w3gf39urmz1)" height="144.8516" id="znn_sdk_dart::src::abi::abi_types.dart::ArrayType" style="stroke:#A80036;stroke-width:2.0;" width="159" x="264.5" y="1026.5"/><ellipse cx="316.25" cy="1042.5" fill="#A9DCDF" rx="11" ry="11" style="stroke:#A80036;stroke-width:1.0;"/><path d="M318.4375,1044.2656 L314.2969,1044.2656 L313.875,1045.2969 L314.2969,1045.2969 Q314.9063,1045.2969 315.1719,1045.5313 Q315.4375,1045.7656 315.4375,1046.1563 Q315.4375,1046.5313 315.1719,1046.7656 Q314.9063,1047 314.2969,1047 L312,1047 Q311.3906,1047 311.1328,1046.7656 Q310.875,1046.5313 310.875,1046.1406 Q310.875,1045.7656 311.1484,1045.5234 Q311.4219,1045.2813 312.0469,1045.2969 L314.7188,1038.6406 L313.6094,1038.6406 Q313,1038.6406 312.7344,1038.4063 Q312.4688,1038.1719 312.4688,1037.7813 Q312.4688,1037.4063 312.7344,1037.1719 Q313,1036.9375 313.6094,1036.9375 L317.2813,1036.9375 L320.6719,1045.2969 Q321.2656,1045.2969 321.4531,1045.4375 Q321.8438,1045.7031 321.8438,1046.1563 Q321.8438,1046.5313 321.5859,1046.7656 Q321.3281,1047 320.7188,1047 L318.4219,1047 Q317.8125,1047 317.5469,1046.7656 Q317.2813,1046.5313 317.2813,1046.1406 Q317.2813,1045.7656 317.5469,1045.5313 Q317.8125,1045.2969 318.4219,1045.2969 L318.8438,1045.2969 L318.4375,1044.2656 Z M317.7188,1042.5625 L316.3594,1039.1875 L314.9844,1042.5625 L317.7188,1042.5625 Z " fill="#000000"/><text fill="#000000" font-family="sans-serif" font-size="10" font-style="italic" lengthAdjust="spacing" textLength="47" x="336.75" y="1046.5918">ArrayType</text><line style="stroke:#A80036;stroke-width:2.0;" x1="265.5" x2="422.5" y1="1058.5" y2="1058.5"/><ellipse cx="275.5" cy="1069.5" rx="3" ry="3" style="stroke:#038048;stroke-width:1.0;fill:none;"/><text fill="#000000" font-family="sans-serif" font-size="11" lengthAdjust="spacing" textLength="104" x="284.5" y="1073.9189">dynamic elementType</text><line style="stroke:#A80036;stroke-width:2.0;" x1="265.5" x2="422.5" y1="1080.3359" y2="1080.3359"/><ellipse cx="275.5" cy="1091.3359" fill="#84BE84" rx="3" ry="3" style="stroke:#038048;stroke-width:1.0;"/><text fill="#000000" font-family="sans-serif" font-size="11" lengthAdjust="spacing" text-decoration="underline" textLength="102" x="284.5" y="1095.7549">ArrayType getType()</text><ellipse cx="275.5" cy="1105.1719" fill="#84BE84" rx="3" ry="3" style="stroke:#038048;stroke-width:1.0;"/><text fill="#000000" font-family="sans-serif" font-size="11" lengthAdjust="spacing" textLength="133" x="284.5" y="1109.5908">AbiType? getElementType()</text><ellipse cx="275.5" cy="1119.0078" fill="#84BE84" rx="3" ry="3" style="stroke:#038048;stroke-width:1.0;"/><text fill="#000000" font-family="sans-serif" font-size="11" lengthAdjust="spacing" textLength="87" x="284.5" y="1123.4268">List&lt;int&gt; encode()</text><ellipse cx="275.5" cy="1132.8438" fill="#84BE84" rx="3" ry="3" style="stroke:#038048;stroke-width:1.0;"/><text fill="#000000" font-family="sans-serif" font-size="11" lengthAdjust="spacing" textLength="113" x="284.5" y="1137.2627">List&lt;int&gt; encodeTuple()</text><ellipse cx="275.5" cy="1146.6797" fill="#84BE84" rx="3" ry="3" style="stroke:#038048;stroke-width:1.0;"/><text fill="#000000" font-family="sans-serif" font-size="11" lengthAdjust="spacing" textLength="113" x="284.5" y="1151.0986">dynamic decodeTuple()</text><ellipse cx="275.5" cy="1160.5156" fill="#84BE84" rx="3" ry="3" style="stroke:#038048;stroke-width:1.0;"/><text fill="#000000" font-family="sans-serif" font-size="11" lengthAdjust="spacing" textLength="104" x="284.5" y="1164.9346">List&lt;int&gt; encodeList()</text><!--MD5=[caf3c26c8a5f82a95b027001e82384b1]
class znn_sdk_dart::src::abi::abi_types.dart::StaticArrayType--><rect codeLine="76" fill="#FEFECE" filter="url(#f11w3gf39urmz1)" height="117.1797" id="znn_sdk_dart::src::abi::abi_types.dart::StaticArrayType" style="stroke:#A80036;stroke-width:2.0;" width="160" x="264" y="874.5"/><ellipse cx="302.4" cy="890.5" fill="#ADD1B2" rx="11" ry="11" style="stroke:#A80036;stroke-width:1.0;"/><path d="M305.1656,886.375 Q305.3219,886.1563 305.5094,886.0469 Q305.6969,885.9375 305.9156,885.9375 Q306.2906,885.9375 306.525,886.1953 Q306.7594,886.4531 306.7594,887.0625 L306.7594,888.5156 Q306.7594,889.125 306.525,889.3906 Q306.2906,889.6563 305.9156,889.6563 Q305.5719,889.6563 305.3688,889.4531 Q305.1656,889.2656 305.0563,888.75 Q305.0094,888.3906 304.8219,888.2031 Q304.4938,887.8281 303.8844,887.6094 Q303.275,887.3906 302.65,887.3906 Q301.8844,887.3906 301.2516,887.7188 Q300.6188,888.0469 300.1266,888.7969 Q299.6344,889.5469 299.6344,890.5781 L299.6344,891.6719 Q299.6344,892.9063 300.525,893.7266 Q301.4156,894.5469 303.0094,894.5469 Q303.9469,894.5469 304.6031,894.2969 Q304.9938,894.1406 305.4156,893.7031 Q305.6813,893.4375 305.8297,893.3594 Q305.9781,893.2813 306.1813,893.2813 Q306.5094,893.2813 306.7672,893.5391 Q307.025,893.7969 307.025,894.1406 Q307.025,894.4844 306.6813,894.8906 Q306.1813,895.4688 305.3844,895.7969 Q304.3063,896.25 303.0094,896.25 Q301.4938,896.25 300.2906,895.625 Q299.3063,895.125 298.6188,894.0547 Q297.9313,892.9844 297.9313,891.7031 L297.9313,890.5469 Q297.9313,889.2188 298.5484,888.0703 Q299.1656,886.9219 300.2594,886.3047 Q301.3531,885.6875 302.5875,885.6875 Q303.3219,885.6875 303.9703,885.8516 Q304.6188,886.0156 305.1656,886.375 Z " fill="#000000"/><text fill="#000000" font-family="sans-serif" font-size="10" lengthAdjust="spacing" textLength="76" x="321.6" y="894.5918">StaticArrayType</text><line style="stroke:#A80036;stroke-width:2.0;" x1="265" x2="423" y1="906.5" y2="906.5"/><ellipse cx="275" cy="917.5" rx="3" ry="3" style="stroke:#038048;stroke-width:1.0;fill:none;"/><text fill="#000000" font-family="sans-serif" font-size="11" lengthAdjust="spacing" textLength="63" x="284" y="921.9189">dynamic size</text><line style="stroke:#A80036;stroke-width:2.0;" x1="265" x2="423" y1="928.3359" y2="928.3359"/><ellipse cx="275" cy="939.3359" fill="#84BE84" rx="3" ry="3" style="stroke:#038048;stroke-width:1.0;"/><text fill="#000000" font-family="sans-serif" font-size="11" lengthAdjust="spacing" textLength="134" x="284" y="943.7549">String? getCanonicalName()</text><ellipse cx="275" cy="953.1719" fill="#84BE84" rx="3" ry="3" style="stroke:#038048;stroke-width:1.0;"/><text fill="#000000" font-family="sans-serif" font-size="11" lengthAdjust="spacing" textLength="104" x="284" y="957.5908">List&lt;int&gt; encodeList()</text><ellipse cx="275" cy="967.0078" fill="#84BE84" rx="3" ry="3" style="stroke:#038048;stroke-width:1.0;"/><text fill="#000000" font-family="sans-serif" font-size="11" lengthAdjust="spacing" textLength="87" x="284" y="971.4268">dynamic decode()</text><ellipse cx="275" cy="980.8438" fill="#84BE84" rx="3" ry="3" style="stroke:#038048;stroke-width:1.0;"/><text fill="#000000" font-family="sans-serif" font-size="11" lengthAdjust="spacing" textLength="90" x="284" y="985.2627">int? getFixedSize()</text><!--MD5=[1b2166d865d2bcbaff50d3ad326bd2b0]
class znn_sdk_dart::src::abi::abi_types.dart::DynamicArrayType--><rect codeLine="84" fill="#FEFECE" filter="url(#f11w3gf39urmz1)" height="103.3438" id="znn_sdk_dart::src::abi::abi_types.dart::DynamicArrayType" style="stroke:#A80036;stroke-width:2.0;" width="160" x="264" y="736.5"/><ellipse cx="296.1" cy="752.5" fill="#ADD1B2" rx="11" ry="11" style="stroke:#A80036;stroke-width:1.0;"/><path d="M298.8656,748.375 Q299.0219,748.1563 299.2094,748.0469 Q299.3969,747.9375 299.6156,747.9375 Q299.9906,747.9375 300.225,748.1953 Q300.4594,748.4531 300.4594,749.0625 L300.4594,750.5156 Q300.4594,751.125 300.225,751.3906 Q299.9906,751.6563 299.6156,751.6563 Q299.2719,751.6563 299.0688,751.4531 Q298.8656,751.2656 298.7563,750.75 Q298.7094,750.3906 298.5219,750.2031 Q298.1938,749.8281 297.5844,749.6094 Q296.975,749.3906 296.35,749.3906 Q295.5844,749.3906 294.9516,749.7188 Q294.3188,750.0469 293.8266,750.7969 Q293.3344,751.5469 293.3344,752.5781 L293.3344,753.6719 Q293.3344,754.9063 294.225,755.7266 Q295.1156,756.5469 296.7094,756.5469 Q297.6469,756.5469 298.3031,756.2969 Q298.6938,756.1406 299.1156,755.7031 Q299.3813,755.4375 299.5297,755.3594 Q299.6781,755.2813 299.8813,755.2813 Q300.2094,755.2813 300.4672,755.5391 Q300.725,755.7969 300.725,756.1406 Q300.725,756.4844 300.3813,756.8906 Q299.8813,757.4688 299.0844,757.7969 Q298.0063,758.25 296.7094,758.25 Q295.1938,758.25 293.9906,757.625 Q293.0063,757.125 292.3188,756.0547 Q291.6313,754.9844 291.6313,753.7031 L291.6313,752.5469 Q291.6313,751.2188 292.2484,750.0703 Q292.8656,748.9219 293.9594,748.3047 Q295.0531,747.6875 296.2875,747.6875 Q297.0219,747.6875 297.6703,747.8516 Q298.3188,748.0156 298.8656,748.375 Z " fill="#000000"/><text fill="#000000" font-family="sans-serif" font-size="10" lengthAdjust="spacing" textLength="90" x="313.9" y="756.5918">DynamicArrayType</text><line style="stroke:#A80036;stroke-width:2.0;" x1="265" x2="423" y1="768.5" y2="768.5"/><line style="stroke:#A80036;stroke-width:2.0;" x1="265" x2="423" y1="776.5" y2="776.5"/><ellipse cx="275" cy="787.5" fill="#84BE84" rx="3" ry="3" style="stroke:#038048;stroke-width:1.0;"/><text fill="#000000" font-family="sans-serif" font-size="11" lengthAdjust="spacing" textLength="134" x="284" y="791.9189">String? getCanonicalName()</text><ellipse cx="275" cy="801.3359" fill="#84BE84" rx="3" ry="3" style="stroke:#038048;stroke-width:1.0;"/><text fill="#000000" font-family="sans-serif" font-size="11" lengthAdjust="spacing" textLength="104" x="284" y="805.7549">List&lt;int&gt; encodeList()</text><ellipse cx="275" cy="815.1719" fill="#84BE84" rx="3" ry="3" style="stroke:#038048;stroke-width:1.0;"/><text fill="#000000" font-family="sans-serif" font-size="11" lengthAdjust="spacing" textLength="87" x="284" y="819.5908">dynamic decode()</text><ellipse cx="275" cy="829.0078" fill="#84BE84" rx="3" ry="3" style="stroke:#038048;stroke-width:1.0;"/><text fill="#000000" font-family="sans-serif" font-size="11" lengthAdjust="spacing" textLength="104" x="284" y="833.4268">bool isDynamicType()</text><!--MD5=[eaae0101b0ba658cd5c369c67c206f03]
class znn_sdk_dart::src::abi::abi_types.dart::BytesType--><rect codeLine="91" fill="#FEFECE" filter="url(#f11w3gf39urmz1)" height="89.5078" id="znn_sdk_dart::src::abi::abi_types.dart::BytesType" style="stroke:#A80036;stroke-width:2.0;" width="130" x="484" y="1227"/><ellipse cx="521.05" cy="1243" fill="#ADD1B2" rx="11" ry="11" style="stroke:#A80036;stroke-width:1.0;"/><path d="M523.8156,1238.875 Q523.9719,1238.6563 524.1594,1238.5469 Q524.3469,1238.4375 524.5656,1238.4375 Q524.9406,1238.4375 525.175,1238.6953 Q525.4094,1238.9531 525.4094,1239.5625 L525.4094,1241.0156 Q525.4094,1241.625 525.175,1241.8906 Q524.9406,1242.1563 524.5656,1242.1563 Q524.2219,1242.1563 524.0188,1241.9531 Q523.8156,1241.7656 523.7063,1241.25 Q523.6594,1240.8906 523.4719,1240.7031 Q523.1438,1240.3281 522.5344,1240.1094 Q521.925,1239.8906 521.3,1239.8906 Q520.5344,1239.8906 519.9016,1240.2188 Q519.2688,1240.5469 518.7766,1241.2969 Q518.2844,1242.0469 518.2844,1243.0781 L518.2844,1244.1719 Q518.2844,1245.4063 519.175,1246.2266 Q520.0656,1247.0469 521.6594,1247.0469 Q522.5969,1247.0469 523.2531,1246.7969 Q523.6438,1246.6406 524.0656,1246.2031 Q524.3313,1245.9375 524.4797,1245.8594 Q524.6281,1245.7813 524.8313,1245.7813 Q525.1594,1245.7813 525.4172,1246.0391 Q525.675,1246.2969 525.675,1246.6406 Q525.675,1246.9844 525.3313,1247.3906 Q524.8313,1247.9688 524.0344,1248.2969 Q522.9563,1248.75 521.6594,1248.75 Q520.1438,1248.75 518.9406,1248.125 Q517.9563,1247.625 517.2688,1246.5547 Q516.5813,1245.4844 516.5813,1244.2031 L516.5813,1243.0469 Q516.5813,1241.7188 517.1984,1240.5703 Q517.8156,1239.4219 518.9094,1238.8047 Q520.0031,1238.1875 521.2375,1238.1875 Q521.9719,1238.1875 522.6203,1238.3516 Q523.2688,1238.5156 523.8156,1238.875 Z " fill="#000000"/><text fill="#000000" font-family="sans-serif" font-size="10" lengthAdjust="spacing" textLength="49" x="539.95" y="1247.0918">BytesType</text><line style="stroke:#A80036;stroke-width:2.0;" x1="485" x2="613" y1="1259" y2="1259"/><line style="stroke:#A80036;stroke-width:2.0;" x1="485" x2="613" y1="1267" y2="1267"/><ellipse cx="495" cy="1278" fill="#84BE84" rx="3" ry="3" style="stroke:#038048;stroke-width:1.0;"/><text fill="#000000" font-family="sans-serif" font-size="11" lengthAdjust="spacing" textLength="87" x="504" y="1282.4189">List&lt;int&gt; encode()</text><ellipse cx="495" cy="1291.8359" fill="#84BE84" rx="3" ry="3" style="stroke:#038048;stroke-width:1.0;"/><text fill="#000000" font-family="sans-serif" font-size="11" lengthAdjust="spacing" textLength="87" x="504" y="1296.2549">dynamic decode()</text><ellipse cx="495" cy="1305.6719" fill="#84BE84" rx="3" ry="3" style="stroke:#038048;stroke-width:1.0;"/><text fill="#000000" font-family="sans-serif" font-size="11" lengthAdjust="spacing" textLength="104" x="504" y="1310.0908">bool isDynamicType()</text><!--MD5=[c1e8985355ce4a5782cc5f7c23363393]
class znn_sdk_dart::src::abi::abi_types.dart::StringType--><rect codeLine="97" fill="#FEFECE" filter="url(#f11w3gf39urmz1)" height="75.6719" id="znn_sdk_dart::src::abi::abi_types.dart::StringType" style="stroke:#A80036;stroke-width:2.0;" width="113" x="492.5" y="1116"/><ellipse cx="520.55" cy="1132" fill="#ADD1B2" rx="11" ry="11" style="stroke:#A80036;stroke-width:1.0;"/><path d="M523.3156,1127.875 Q523.4719,1127.6563 523.6594,1127.5469 Q523.8469,1127.4375 524.0656,1127.4375 Q524.4406,1127.4375 524.675,1127.6953 Q524.9094,1127.9531 524.9094,1128.5625 L524.9094,1130.0156 Q524.9094,1130.625 524.675,1130.8906 Q524.4406,1131.1563 524.0656,1131.1563 Q523.7219,1131.1563 523.5188,1130.9531 Q523.3156,1130.7656 523.2063,1130.25 Q523.1594,1129.8906 522.9719,1129.7031 Q522.6438,1129.3281 522.0344,1129.1094 Q521.425,1128.8906 520.8,1128.8906 Q520.0344,1128.8906 519.4016,1129.2188 Q518.7688,1129.5469 518.2766,1130.2969 Q517.7844,1131.0469 517.7844,1132.0781 L517.7844,1133.1719 Q517.7844,1134.4063 518.675,1135.2266 Q519.5656,1136.0469 521.1594,1136.0469 Q522.0969,1136.0469 522.7531,1135.7969 Q523.1438,1135.6406 523.5656,1135.2031 Q523.8313,1134.9375 523.9797,1134.8594 Q524.1281,1134.7813 524.3313,1134.7813 Q524.6594,1134.7813 524.9172,1135.0391 Q525.175,1135.2969 525.175,1135.6406 Q525.175,1135.9844 524.8313,1136.3906 Q524.3313,1136.9688 523.5344,1137.2969 Q522.4563,1137.75 521.1594,1137.75 Q519.6438,1137.75 518.4406,1137.125 Q517.4563,1136.625 516.7688,1135.5547 Q516.0813,1134.4844 516.0813,1133.2031 L516.0813,1132.0469 Q516.0813,1130.7188 516.6984,1129.5703 Q517.3156,1128.4219 518.4094,1127.8047 Q519.5031,1127.1875 520.7375,1127.1875 Q521.4719,1127.1875 522.1203,1127.3516 Q522.7688,1127.5156 523.3156,1127.875 Z " fill="#000000"/><text fill="#000000" font-family="sans-serif" font-size="10" lengthAdjust="spacing" textLength="52" x="537.45" y="1136.0918">StringType</text><line style="stroke:#A80036;stroke-width:2.0;" x1="493.5" x2="604.5" y1="1148" y2="1148"/><line style="stroke:#A80036;stroke-width:2.0;" x1="493.5" x2="604.5" y1="1156" y2="1156"/><ellipse cx="503.5" cy="1167" fill="#84BE84" rx="3" ry="3" style="stroke:#038048;stroke-width:1.0;"/><text fill="#000000" font-family="sans-serif" font-size="11" lengthAdjust="spacing" textLength="87" x="512.5" y="1171.4189">List&lt;int&gt; encode()</text><ellipse cx="503.5" cy="1180.8359" fill="#84BE84" rx="3" ry="3" style="stroke:#038048;stroke-width:1.0;"/><text fill="#000000" font-family="sans-serif" font-size="11" lengthAdjust="spacing" textLength="87" x="512.5" y="1185.2549">dynamic decode()</text><!--MD5=[a05ed18db612c796cd2b2ac7cba71ed7]
class znn_sdk_dart::src::abi::abi_types.dart::Bytes32Type--><rect codeLine="102" fill="#FEFECE" filter="url(#f11w3gf39urmz1)" height="75.6719" id="znn_sdk_dart::src::abi::abi_types.dart::Bytes32Type" style="stroke:#A80036;stroke-width:2.0;" width="113" x="492.5" y="1005"/><ellipse cx="516.5" cy="1021" fill="#ADD1B2" rx="11" ry="11" style="stroke:#A80036;stroke-width:1.0;"/><path d="M519.2656,1016.875 Q519.4219,1016.6563 519.6094,1016.5469 Q519.7969,1016.4375 520.0156,1016.4375 Q520.3906,1016.4375 520.625,1016.6953 Q520.8594,1016.9531 520.8594,1017.5625 L520.8594,1019.0156 Q520.8594,1019.625 520.625,1019.8906 Q520.3906,1020.1563 520.0156,1020.1563 Q519.6719,1020.1563 519.4688,1019.9531 Q519.2656,1019.7656 519.1563,1019.25 Q519.1094,1018.8906 518.9219,1018.7031 Q518.5938,1018.3281 517.9844,1018.1094 Q517.375,1017.8906 516.75,1017.8906 Q515.9844,1017.8906 515.3516,1018.2188 Q514.7188,1018.5469 514.2266,1019.2969 Q513.7344,1020.0469 513.7344,1021.0781 L513.7344,1022.1719 Q513.7344,1023.4063 514.625,1024.2266 Q515.5156,1025.0469 517.1094,1025.0469 Q518.0469,1025.0469 518.7031,1024.7969 Q519.0938,1024.6406 519.5156,1024.2031 Q519.7813,1023.9375 519.9297,1023.8594 Q520.0781,1023.7813 520.2813,1023.7813 Q520.6094,1023.7813 520.8672,1024.0391 Q521.125,1024.2969 521.125,1024.6406 Q521.125,1024.9844 520.7813,1025.3906 Q520.2813,1025.9688 519.4844,1026.2969 Q518.4063,1026.75 517.1094,1026.75 Q515.5938,1026.75 514.3906,1026.125 Q513.4063,1025.625 512.7188,1024.5547 Q512.0313,1023.4844 512.0313,1022.2031 L512.0313,1021.0469 Q512.0313,1019.7188 512.6484,1018.5703 Q513.2656,1017.4219 514.3594,1016.8047 Q515.4531,1016.1875 516.6875,1016.1875 Q517.4219,1016.1875 518.0703,1016.3516 Q518.7188,1016.5156 519.2656,1016.875 Z " fill="#000000"/><text fill="#000000" font-family="sans-serif" font-size="10" lengthAdjust="spacing" textLength="61" x="532.5" y="1025.0918">Bytes32Type</text><line style="stroke:#A80036;stroke-width:2.0;" x1="493.5" x2="604.5" y1="1037" y2="1037"/><line style="stroke:#A80036;stroke-width:2.0;" x1="493.5" x2="604.5" y1="1045" y2="1045"/><ellipse cx="503.5" cy="1056" fill="#84BE84" rx="3" ry="3" style="stroke:#038048;stroke-width:1.0;"/><text fill="#000000" font-family="sans-serif" font-size="11" lengthAdjust="spacing" textLength="87" x="512.5" y="1060.4189">List&lt;int&gt; encode()</text><ellipse cx="503.5" cy="1069.8359" fill="#84BE84" rx="3" ry="3" style="stroke:#038048;stroke-width:1.0;"/><text fill="#000000" font-family="sans-serif" font-size="11" lengthAdjust="spacing" textLength="87" x="512.5" y="1074.2549">dynamic decode()</text><!--MD5=[718703cf74c2499ef40908a6a9cac92d]
class znn_sdk_dart::src::abi::abi_types.dart::HashType--><rect codeLine="107" fill="#FEFECE" filter="url(#f11w3gf39urmz1)" height="75.6719" id="znn_sdk_dart::src::abi::abi_types.dart::HashType" style="stroke:#A80036;stroke-width:2.0;" width="113" x="492.5" y="894"/><ellipse cx="522.8" cy="910" fill="#ADD1B2" rx="11" ry="11" style="stroke:#A80036;stroke-width:1.0;"/><path d="M525.5656,905.875 Q525.7219,905.6563 525.9094,905.5469 Q526.0969,905.4375 526.3156,905.4375 Q526.6906,905.4375 526.925,905.6953 Q527.1594,905.9531 527.1594,906.5625 L527.1594,908.0156 Q527.1594,908.625 526.925,908.8906 Q526.6906,909.1563 526.3156,909.1563 Q525.9719,909.1563 525.7688,908.9531 Q525.5656,908.7656 525.4563,908.25 Q525.4094,907.8906 525.2219,907.7031 Q524.8938,907.3281 524.2844,907.1094 Q523.675,906.8906 523.05,906.8906 Q522.2844,906.8906 521.6516,907.2188 Q521.0188,907.5469 520.5266,908.2969 Q520.0344,909.0469 520.0344,910.0781 L520.0344,911.1719 Q520.0344,912.4063 520.925,913.2266 Q521.8156,914.0469 523.4094,914.0469 Q524.3469,914.0469 525.0031,913.7969 Q525.3938,913.6406 525.8156,913.2031 Q526.0813,912.9375 526.2297,912.8594 Q526.3781,912.7813 526.5813,912.7813 Q526.9094,912.7813 527.1672,913.0391 Q527.425,913.2969 527.425,913.6406 Q527.425,913.9844 527.0813,914.3906 Q526.5813,914.9688 525.7844,915.2969 Q524.7063,915.75 523.4094,915.75 Q521.8938,915.75 520.6906,915.125 Q519.7063,914.625 519.0188,913.5547 Q518.3313,912.4844 518.3313,911.2031 L518.3313,910.0469 Q518.3313,908.7188 518.9484,907.5703 Q519.5656,906.4219 520.6594,905.8047 Q521.7531,905.1875 522.9875,905.1875 Q523.7219,905.1875 524.3703,905.3516 Q525.0188,905.5156 525.5656,905.875 Z " fill="#000000"/><text fill="#000000" font-family="sans-serif" font-size="10" lengthAdjust="spacing" textLength="47" x="540.2" y="914.0918">HashType</text><line style="stroke:#A80036;stroke-width:2.0;" x1="493.5" x2="604.5" y1="926" y2="926"/><line style="stroke:#A80036;stroke-width:2.0;" x1="493.5" x2="604.5" y1="934" y2="934"/><ellipse cx="503.5" cy="945" fill="#84BE84" rx="3" ry="3" style="stroke:#038048;stroke-width:1.0;"/><text fill="#000000" font-family="sans-serif" font-size="11" lengthAdjust="spacing" textLength="87" x="512.5" y="949.4189">List&lt;int&gt; encode()</text><ellipse cx="503.5" cy="958.8359" fill="#84BE84" rx="3" ry="3" style="stroke:#038048;stroke-width:1.0;"/><text fill="#000000" font-family="sans-serif" font-size="11" lengthAdjust="spacing" textLength="87" x="512.5" y="963.2549">dynamic decode()</text><!--MD5=[4d0ca35020a0c1d788250e802f8e9340]
class znn_sdk_dart::src::abi::abi_types.dart::TokenStandardType--><rect codeLine="112" fill="#FEFECE" filter="url(#f11w3gf39urmz1)" height="75.6719" id="znn_sdk_dart::src::abi::abi_types.dart::TokenStandardType" style="stroke:#A80036;stroke-width:2.0;" width="128" x="690" y="1234"/><ellipse cx="705" cy="1250" fill="#ADD1B2" rx="11" ry="11" style="stroke:#A80036;stroke-width:1.0;"/><path d="M707.7656,1245.875 Q707.9219,1245.6563 708.1094,1245.5469 Q708.2969,1245.4375 708.5156,1245.4375 Q708.8906,1245.4375 709.125,1245.6953 Q709.3594,1245.9531 709.3594,1246.5625 L709.3594,1248.0156 Q709.3594,1248.625 709.125,1248.8906 Q708.8906,1249.1563 708.5156,1249.1563 Q708.1719,1249.1563 707.9688,1248.9531 Q707.7656,1248.7656 707.6563,1248.25 Q707.6094,1247.8906 707.4219,1247.7031 Q707.0938,1247.3281 706.4844,1247.1094 Q705.875,1246.8906 705.25,1246.8906 Q704.4844,1246.8906 703.8516,1247.2188 Q703.2188,1247.5469 702.7266,1248.2969 Q702.2344,1249.0469 702.2344,1250.0781 L702.2344,1251.1719 Q702.2344,1252.4063 703.125,1253.2266 Q704.0156,1254.0469 705.6094,1254.0469 Q706.5469,1254.0469 707.2031,1253.7969 Q707.5938,1253.6406 708.0156,1253.2031 Q708.2813,1252.9375 708.4297,1252.8594 Q708.5781,1252.7813 708.7813,1252.7813 Q709.1094,1252.7813 709.3672,1253.0391 Q709.625,1253.2969 709.625,1253.6406 Q709.625,1253.9844 709.2813,1254.3906 Q708.7813,1254.9688 707.9844,1255.2969 Q706.9063,1255.75 705.6094,1255.75 Q704.0938,1255.75 702.8906,1255.125 Q701.9063,1254.625 701.2188,1253.5547 Q700.5313,1252.4844 700.5313,1251.2031 L700.5313,1250.0469 Q700.5313,1248.7188 701.1484,1247.5703 Q701.7656,1246.4219 702.8594,1245.8047 Q703.9531,1245.1875 705.1875,1245.1875 Q705.9219,1245.1875 706.5703,1245.3516 Q707.2188,1245.5156 707.7656,1245.875 Z " fill="#000000"/><text fill="#000000" font-family="sans-serif" font-size="10" lengthAdjust="spacing" textLength="96" x="719" y="1254.0918">TokenStandardType</text><line style="stroke:#A80036;stroke-width:2.0;" x1="691" x2="817" y1="1266" y2="1266"/><line style="stroke:#A80036;stroke-width:2.0;" x1="691" x2="817" y1="1274" y2="1274"/><ellipse cx="701" cy="1285" fill="#84BE84" rx="3" ry="3" style="stroke:#038048;stroke-width:1.0;"/><text fill="#000000" font-family="sans-serif" font-size="11" lengthAdjust="spacing" textLength="87" x="710" y="1289.4189">List&lt;int&gt; encode()</text><ellipse cx="701" cy="1298.8359" fill="#84BE84" rx="3" ry="3" style="stroke:#038048;stroke-width:1.0;"/><text fill="#000000" font-family="sans-serif" font-size="11" lengthAdjust="spacing" textLength="87" x="710" y="1303.2549">dynamic decode()</text><!--MD5=[8db9f124911d19534affa4534002f2b0]
class znn_sdk_dart::src::abi::abi_types.dart::UnsignedIntType--><rect codeLine="117" fill="#FEFECE" filter="url(#f11w3gf39urmz1)" height="131.0156" id="znn_sdk_dart::src::abi::abi_types.dart::UnsignedIntType" style="stroke:#A80036;stroke-width:2.0;" width="160" x="674" y="1067.5"/><ellipse cx="710.6" cy="1083.5" fill="#ADD1B2" rx="11" ry="11" style="stroke:#A80036;stroke-width:1.0;"/><path d="M713.3656,1079.375 Q713.5219,1079.1563 713.7094,1079.0469 Q713.8969,1078.9375 714.1156,1078.9375 Q714.4906,1078.9375 714.725,1079.1953 Q714.9594,1079.4531 714.9594,1080.0625 L714.9594,1081.5156 Q714.9594,1082.125 714.725,1082.3906 Q714.4906,1082.6563 714.1156,1082.6563 Q713.7719,1082.6563 713.5688,1082.4531 Q713.3656,1082.2656 713.2563,1081.75 Q713.2094,1081.3906 713.0219,1081.2031 Q712.6938,1080.8281 712.0844,1080.6094 Q711.475,1080.3906 710.85,1080.3906 Q710.0844,1080.3906 709.4516,1080.7188 Q708.8188,1081.0469 708.3266,1081.7969 Q707.8344,1082.5469 707.8344,1083.5781 L707.8344,1084.6719 Q707.8344,1085.9063 708.725,1086.7266 Q709.6156,1087.5469 711.2094,1087.5469 Q712.1469,1087.5469 712.8031,1087.2969 Q713.1938,1087.1406 713.6156,1086.7031 Q713.8813,1086.4375 714.0297,1086.3594 Q714.1781,1086.2813 714.3813,1086.2813 Q714.7094,1086.2813 714.9672,1086.5391 Q715.225,1086.7969 715.225,1087.1406 Q715.225,1087.4844 714.8813,1087.8906 Q714.3813,1088.4688 713.5844,1088.7969 Q712.5063,1089.25 711.2094,1089.25 Q709.6938,1089.25 708.4906,1088.625 Q707.5063,1088.125 706.8188,1087.0547 Q706.1313,1085.9844 706.1313,1084.7031 L706.1313,1083.5469 Q706.1313,1082.2188 706.7484,1081.0703 Q707.3656,1079.9219 708.4594,1079.3047 Q709.5531,1078.6875 710.7875,1078.6875 Q711.5219,1078.6875 712.1703,1078.8516 Q712.8188,1079.0156 713.3656,1079.375 Z " fill="#000000"/><text fill="#000000" font-family="sans-serif" font-size="10" lengthAdjust="spacing" textLength="80" x="729.4" y="1087.5918">UnsignedIntType</text><line style="stroke:#A80036;stroke-width:2.0;" x1="675" x2="833" y1="1099.5" y2="1099.5"/><line style="stroke:#A80036;stroke-width:2.0;" x1="675" x2="833" y1="1107.5" y2="1107.5"/><ellipse cx="685" cy="1118.5" fill="#84BE84" rx="3" ry="3" style="stroke:#038048;stroke-width:1.0;"/><text fill="#000000" font-family="sans-serif" font-size="11" lengthAdjust="spacing" textLength="134" x="694" y="1122.9189">String? getCanonicalName()</text><ellipse cx="685" cy="1132.3359" fill="#84BE84" rx="3" ry="3" style="stroke:#038048;stroke-width:1.0;"/><text fill="#000000" font-family="sans-serif" font-size="11" lengthAdjust="spacing" text-decoration="underline" textLength="84" x="694" y="1136.7549">BigInt decodeInt()</text><ellipse cx="685" cy="1146.1719" fill="#84BE84" rx="3" ry="3" style="stroke:#038048;stroke-width:1.0;"/><text fill="#000000" font-family="sans-serif" font-size="11" lengthAdjust="spacing" text-decoration="underline" textLength="98" x="694" y="1150.5908">List&lt;int&gt; encodeInt()</text><ellipse cx="685" cy="1160.0078" fill="#84BE84" rx="3" ry="3" style="stroke:#038048;stroke-width:1.0;"/><text fill="#000000" font-family="sans-serif" font-size="11" lengthAdjust="spacing" text-decoration="underline" textLength="113" x="694" y="1164.4268">List&lt;int&gt; encodeIntBig()</text><ellipse cx="685" cy="1173.8438" fill="#84BE84" rx="3" ry="3" style="stroke:#038048;stroke-width:1.0;"/><text fill="#000000" font-family="sans-serif" font-size="11" lengthAdjust="spacing" textLength="87" x="694" y="1178.2627">List&lt;int&gt; encode()</text><ellipse cx="685" cy="1187.6797" fill="#84BE84" rx="3" ry="3" style="stroke:#038048;stroke-width:1.0;"/><text fill="#000000" font-family="sans-serif" font-size="11" lengthAdjust="spacing" textLength="87" x="694" y="1192.0986">dynamic decode()</text><!--MD5=[2eddfd7929a8b4bd1c104835d7af8364]
class znn_sdk_dart::src::abi::abi_types.dart::BoolType--><rect codeLine="126" fill="#FEFECE" filter="url(#f11w3gf39urmz1)" height="75.6719" id="znn_sdk_dart::src::abi::abi_types.dart::BoolType" style="stroke:#A80036;stroke-width:2.0;" width="113" x="697.5" y="956"/><ellipse cx="728.25" cy="972" fill="#ADD1B2" rx="11" ry="11" style="stroke:#A80036;stroke-width:1.0;"/><path d="M731.0156,967.875 Q731.1719,967.6563 731.3594,967.5469 Q731.5469,967.4375 731.7656,967.4375 Q732.1406,967.4375 732.375,967.6953 Q732.6094,967.9531 732.6094,968.5625 L732.6094,970.0156 Q732.6094,970.625 732.375,970.8906 Q732.1406,971.1563 731.7656,971.1563 Q731.4219,971.1563 731.2188,970.9531 Q731.0156,970.7656 730.9063,970.25 Q730.8594,969.8906 730.6719,969.7031 Q730.3438,969.3281 729.7344,969.1094 Q729.125,968.8906 728.5,968.8906 Q727.7344,968.8906 727.1016,969.2188 Q726.4688,969.5469 725.9766,970.2969 Q725.4844,971.0469 725.4844,972.0781 L725.4844,973.1719 Q725.4844,974.4063 726.375,975.2266 Q727.2656,976.0469 728.8594,976.0469 Q729.7969,976.0469 730.4531,975.7969 Q730.8438,975.6406 731.2656,975.2031 Q731.5313,974.9375 731.6797,974.8594 Q731.8281,974.7813 732.0313,974.7813 Q732.3594,974.7813 732.6172,975.0391 Q732.875,975.2969 732.875,975.6406 Q732.875,975.9844 732.5313,976.3906 Q732.0313,976.9688 731.2344,977.2969 Q730.1563,977.75 728.8594,977.75 Q727.3438,977.75 726.1406,977.125 Q725.1563,976.625 724.4688,975.5547 Q723.7813,974.4844 723.7813,973.2031 L723.7813,972.0469 Q723.7813,970.7188 724.3984,969.5703 Q725.0156,968.4219 726.1094,967.8047 Q727.2031,967.1875 728.4375,967.1875 Q729.1719,967.1875 729.8203,967.3516 Q730.4688,967.5156 731.0156,967.875 Z " fill="#000000"/><text fill="#000000" font-family="sans-serif" font-size="10" lengthAdjust="spacing" textLength="46" x="745.75" y="976.0918">BoolType</text><line style="stroke:#A80036;stroke-width:2.0;" x1="698.5" x2="809.5" y1="988" y2="988"/><line style="stroke:#A80036;stroke-width:2.0;" x1="698.5" x2="809.5" y1="996" y2="996"/><ellipse cx="708.5" cy="1007" fill="#84BE84" rx="3" ry="3" style="stroke:#038048;stroke-width:1.0;"/><text fill="#000000" font-family="sans-serif" font-size="11" lengthAdjust="spacing" textLength="87" x="717.5" y="1011.4189">List&lt;int&gt; encode()</text><ellipse cx="708.5" cy="1020.8359" fill="#84BE84" rx="3" ry="3" style="stroke:#038048;stroke-width:1.0;"/><text fill="#000000" font-family="sans-serif" font-size="11" lengthAdjust="spacing" textLength="87" x="717.5" y="1025.2549">dynamic decode()</text><!--MD5=[9a63b700158fb95f00834c0abf02b09f]
class znn_sdk_dart::src::abi::abi_types.dart::FunctionType--><rect codeLine="131" fill="#FEFECE" filter="url(#f11w3gf39urmz1)" height="75.6719" id="znn_sdk_dart::src::abi::abi_types.dart::FunctionType" style="stroke:#A80036;stroke-width:2.0;" width="113" x="697.5" y="845"/><ellipse cx="719.25" cy="861" fill="#ADD1B2" rx="11" ry="11" style="stroke:#A80036;stroke-width:1.0;"/><path d="M722.0156,856.875 Q722.1719,856.6563 722.3594,856.5469 Q722.5469,856.4375 722.7656,856.4375 Q723.1406,856.4375 723.375,856.6953 Q723.6094,856.9531 723.6094,857.5625 L723.6094,859.0156 Q723.6094,859.625 723.375,859.8906 Q723.1406,860.1563 722.7656,860.1563 Q722.4219,860.1563 722.2188,859.9531 Q722.0156,859.7656 721.9063,859.25 Q721.8594,858.8906 721.6719,858.7031 Q721.3438,858.3281 720.7344,858.1094 Q720.125,857.8906 719.5,857.8906 Q718.7344,857.8906 718.1016,858.2188 Q717.4688,858.5469 716.9766,859.2969 Q716.4844,860.0469 716.4844,861.0781 L716.4844,862.1719 Q716.4844,863.4063 717.375,864.2266 Q718.2656,865.0469 719.8594,865.0469 Q720.7969,865.0469 721.4531,864.7969 Q721.8438,864.6406 722.2656,864.2031 Q722.5313,863.9375 722.6797,863.8594 Q722.8281,863.7813 723.0313,863.7813 Q723.3594,863.7813 723.6172,864.0391 Q723.875,864.2969 723.875,864.6406 Q723.875,864.9844 723.5313,865.3906 Q723.0313,865.9688 722.2344,866.2969 Q721.1563,866.75 719.8594,866.75 Q718.3438,866.75 717.1406,866.125 Q716.1563,865.625 715.4688,864.5547 Q714.7813,863.4844 714.7813,862.2031 L714.7813,861.0469 Q714.7813,859.7188 715.3984,858.5703 Q716.0156,857.4219 717.1094,856.8047 Q718.2031,856.1875 719.4375,856.1875 Q720.1719,856.1875 720.8203,856.3516 Q721.4688,856.5156 722.0156,856.875 Z " fill="#000000"/><text fill="#000000" font-family="sans-serif" font-size="10" lengthAdjust="spacing" textLength="66" x="734.75" y="865.0918">FunctionType</text><line style="stroke:#A80036;stroke-width:2.0;" x1="698.5" x2="809.5" y1="877" y2="877"/><line style="stroke:#A80036;stroke-width:2.0;" x1="698.5" x2="809.5" y1="885" y2="885"/><ellipse cx="708.5" cy="896" fill="#84BE84" rx="3" ry="3" style="stroke:#038048;stroke-width:1.0;"/><text fill="#000000" font-family="sans-serif" font-size="11" lengthAdjust="spacing" textLength="87" x="717.5" y="900.4189">List&lt;int&gt; encode()</text><ellipse cx="708.5" cy="909.8359" fill="#84BE84" rx="3" ry="3" style="stroke:#038048;stroke-width:1.0;"/><text fill="#000000" font-family="sans-serif" font-size="11" lengthAdjust="spacing" textLength="87" x="717.5" y="914.2549">dynamic decode()</text><!--MD5=[a4ba6ac19f99f03b6abef09f18541684]
class znn_sdk_dart::src::abi::abi_types.dart::NumericType--><rect codeLine="136" fill="#FEFECE" filter="url(#f11w3gf39urmz1)" height="61.8359" id="znn_sdk_dart::src::abi::abi_types.dart::NumericType" style="stroke:#A80036;stroke-width:2.0;" width="134" x="894" y="1241"/><ellipse cx="927.9" cy="1257" fill="#A9DCDF" rx="11" ry="11" style="stroke:#A80036;stroke-width:1.0;"/><path d="M930.0875,1258.7656 L925.9469,1258.7656 L925.525,1259.7969 L925.9469,1259.7969 Q926.5563,1259.7969 926.8219,1260.0313 Q927.0875,1260.2656 927.0875,1260.6563 Q927.0875,1261.0313 926.8219,1261.2656 Q926.5563,1261.5 925.9469,1261.5 L923.65,1261.5 Q923.0406,1261.5 922.7828,1261.2656 Q922.525,1261.0313 922.525,1260.6406 Q922.525,1260.2656 922.7984,1260.0234 Q923.0719,1259.7813 923.6969,1259.7969 L926.3688,1253.1406 L925.2594,1253.1406 Q924.65,1253.1406 924.3844,1252.9063 Q924.1188,1252.6719 924.1188,1252.2813 Q924.1188,1251.9063 924.3844,1251.6719 Q924.65,1251.4375 925.2594,1251.4375 L928.9313,1251.4375 L932.3219,1259.7969 Q932.9156,1259.7969 933.1031,1259.9375 Q933.4938,1260.2031 933.4938,1260.6563 Q933.4938,1261.0313 933.2359,1261.2656 Q932.9781,1261.5 932.3688,1261.5 L930.0719,1261.5 Q929.4625,1261.5 929.1969,1261.2656 Q928.9313,1261.0313 928.9313,1260.6406 Q928.9313,1260.2656 929.1969,1260.0313 Q929.4625,1259.7969 930.0719,1259.7969 L930.4938,1259.7969 L930.0875,1258.7656 Z M929.3688,1257.0625 L928.0094,1253.6875 L926.6344,1257.0625 L929.3688,1257.0625 Z " fill="#000000"/><text fill="#000000" font-family="sans-serif" font-size="10" font-style="italic" lengthAdjust="spacing" textLength="60" x="946.1" y="1261.0918">NumericType</text><line style="stroke:#A80036;stroke-width:2.0;" x1="895" x2="1027" y1="1273" y2="1273"/><line style="stroke:#A80036;stroke-width:2.0;" x1="895" x2="1027" y1="1281" y2="1281"/><ellipse cx="905" cy="1292" fill="#84BE84" rx="3" ry="3" style="stroke:#038048;stroke-width:1.0;"/><text fill="#000000" font-family="sans-serif" font-size="11" lengthAdjust="spacing" textLength="108" x="914" y="1296.4189">BigInt encodeInternal()</text><!--MD5=[00c06590bf9b58bb3c790a1be082d5a4]
class znn_sdk_dart::src::abi::abi_types.dart::AddressType--><rect codeLine="140" fill="#FEFECE" filter="url(#f11w3gf39urmz1)" height="75.6719" id="znn_sdk_dart::src::abi::abi_types.dart::AddressType" style="stroke:#A80036;stroke-width:2.0;" width="113" x="904.5" y="1130"/><ellipse cx="928.95" cy="1146" fill="#ADD1B2" rx="11" ry="11" style="stroke:#A80036;stroke-width:1.0;"/><path d="M931.7156,1141.875 Q931.8719,1141.6563 932.0594,1141.5469 Q932.2469,1141.4375 932.4656,1141.4375 Q932.8406,1141.4375 933.075,1141.6953 Q933.3094,1141.9531 933.3094,1142.5625 L933.3094,1144.0156 Q933.3094,1144.625 933.075,1144.8906 Q932.8406,1145.1563 932.4656,1145.1563 Q932.1219,1145.1563 931.9188,1144.9531 Q931.7156,1144.7656 931.6063,1144.25 Q931.5594,1143.8906 931.3719,1143.7031 Q931.0438,1143.3281 930.4344,1143.1094 Q929.825,1142.8906 929.2,1142.8906 Q928.4344,1142.8906 927.8016,1143.2188 Q927.1688,1143.5469 926.6766,1144.2969 Q926.1844,1145.0469 926.1844,1146.0781 L926.1844,1147.1719 Q926.1844,1148.4063 927.075,1149.2266 Q927.9656,1150.0469 929.5594,1150.0469 Q930.4969,1150.0469 931.1531,1149.7969 Q931.5438,1149.6406 931.9656,1149.2031 Q932.2313,1148.9375 932.3797,1148.8594 Q932.5281,1148.7813 932.7313,1148.7813 Q933.0594,1148.7813 933.3172,1149.0391 Q933.575,1149.2969 933.575,1149.6406 Q933.575,1149.9844 933.2313,1150.3906 Q932.7313,1150.9688 931.9344,1151.2969 Q930.8563,1151.75 929.5594,1151.75 Q928.0438,1151.75 926.8406,1151.125 Q925.8563,1150.625 925.1688,1149.5547 Q924.4813,1148.4844 924.4813,1147.2031 L924.4813,1146.0469 Q924.4813,1144.7188 925.0984,1143.5703 Q925.7156,1142.4219 926.8094,1141.8047 Q927.9031,1141.1875 929.1375,1141.1875 Q929.8719,1141.1875 930.5203,1141.3516 Q931.1688,1141.5156 931.7156,1141.875 Z " fill="#000000"/><text fill="#000000" font-family="sans-serif" font-size="10" lengthAdjust="spacing" textLength="60" x="945.05" y="1150.0918">AddressType</text><line style="stroke:#A80036;stroke-width:2.0;" x1="905.5" x2="1016.5" y1="1162" y2="1162"/><line style="stroke:#A80036;stroke-width:2.0;" x1="905.5" x2="1016.5" y1="1170" y2="1170"/><ellipse cx="915.5" cy="1181" fill="#84BE84" rx="3" ry="3" style="stroke:#038048;stroke-width:1.0;"/><text fill="#000000" font-family="sans-serif" font-size="11" lengthAdjust="spacing" textLength="87" x="924.5" y="1185.4189">List&lt;int&gt; encode()</text><ellipse cx="915.5" cy="1194.8359" fill="#84BE84" rx="3" ry="3" style="stroke:#038048;stroke-width:1.0;"/><text fill="#000000" font-family="sans-serif" font-size="11" lengthAdjust="spacing" textLength="87" x="924.5" y="1199.2549">dynamic decode()</text><!--MD5=[41229d8288ecc522e14281e6797b61a4]
reverse link znn_sdk_dart::src::abi::abi.dart::TypeEnum to znn_sdk_dart::src::abi::abi.dart::TypeEnum--><path codeLine="16" d="M306.87,57.79 C310.49,45.16 322.86,36 344,36 C371.89,36 384.53,51.95 381.91,70.77 " fill="none" id="znn_sdk_dart::src::abi::abi.dart::TypeEnum-backto-znn_sdk_dart::src::abi::abi.dart::TypeEnum" style="stroke:#A80036;stroke-width:3.0;"/><polygon fill="#FFFFFF" points="306.09,70.77,310.4455,65.0228,306.8155,58.792,302.4601,64.5391,306.09,70.77" style="stroke:#A80036;stroke-width:3.0;"/><!--MD5=[dcf361fbf831fb85fe2ddcee39d25f0f]
reverse link znn_sdk_dart::src::abi::abi.dart::Param to znn_sdk_dart::src::abi::abi_types.dart::AbiType--><path codeLine="26" d="M200.64,351.54 C201.85,353.66 202.97,355.81 204,358 C298.16,558.71 155.29,1150.12 240,1355 C245.83,1369.09 254.3,1382.49 263.92,1394.8 " fill="none" id="znn_sdk_dart::src::abi::abi.dart::Param-backto-znn_sdk_dart::src::abi::abi_types.dart::AbiType" style="stroke:#A80036;stroke-width:3.0;"/><polygon fill="#FFFFFF" points="193.45,340.59,193.3951,347.8009,200.0301,350.625,200.0851,343.4141,193.45,340.59" style="stroke:#A80036;stroke-width:3.0;"/><!--MD5=[bb5663257cc05e4d7cc00547de3257f9]
reverse link znn_sdk_dart::src::abi::abi.dart::Entry to znn_sdk_dart::src::abi::abi.dart::TypeEnum--><path codeLine="38" d="M217.1,116 C236.17,116 255.8,116 273.71,116 " fill="none" id="znn_sdk_dart::src::abi::abi.dart::Entry-backto-znn_sdk_dart::src::abi::abi.dart::TypeEnum" style="stroke:#A80036;stroke-width:3.0;"/><polygon fill="#FFFFFF" points="204,116,210,120,216,116,210,112,204,116" style="stroke:#A80036;stroke-width:3.0;"/><!--MD5=[3d02ee4b6eb7d0674c0e1690b1e05b65]
link znn_sdk_dart::src::abi::abi_types.dart::IntType to znn_sdk_dart::src::abi::abi_types.dart::ArrayType--><!--MD5=[5f7e220b70274fe7c29cdd4dc95a0bae]
link znn_sdk_dart::src::abi::abi_types.dart::ArrayType to znn_sdk_dart::src::abi::abi_types.dart::StaticArrayType--><!--MD5=[25109fae61acaf384452df69fb76da0b]
link znn_sdk_dart::src::abi::abi_types.dart::StaticArrayType to znn_sdk_dart::src::abi::abi_types.dart::DynamicArrayType--><!--MD5=[a9edc039964f089a5ddfc224d57beb18]
link znn_sdk_dart::src::abi::abi_types.dart::IntType to znn_sdk_dart::src::abi::abi_types.dart::BytesType--><!--MD5=[43ec6e8adba7bc818b3883ad486dcaef]
link znn_sdk_dart::src::abi::abi_types.dart::BytesType to znn_sdk_dart::src::abi::abi_types.dart::StringType--><!--MD5=[4667f0aa495a69df3f8d592143961fec]
link znn_sdk_dart::src::abi::abi_types.dart::StringType to znn_sdk_dart::src::abi::abi_types.dart::Bytes32Type--><!--MD5=[9ce19cdd7b2e1847df6712615a7c624b]
link znn_sdk_dart::src::abi::abi_types.dart::Bytes32Type to znn_sdk_dart::src::abi::abi_types.dart::HashType--><!--MD5=[a9bd0379b615ff32cc6feb8c157a0068]
link znn_sdk_dart::src::abi::abi_types.dart::BytesType to znn_sdk_dart::src::abi::abi_types.dart::TokenStandardType--><!--MD5=[7b27c224f5a2fa1254175127f2c004c4]
link znn_sdk_dart::src::abi::abi_types.dart::TokenStandardType to znn_sdk_dart::src::abi::abi_types.dart::UnsignedIntType--><!--MD5=[821fe0baf71636867d2ff4f62e2ae7f5]
link znn_sdk_dart::src::abi::abi_types.dart::UnsignedIntType to znn_sdk_dart::src::abi::abi_types.dart::BoolType--><!--MD5=[282e641b8ac2be723d1b8bec342ad96f]
link znn_sdk_dart::src::abi::abi_types.dart::BoolType to znn_sdk_dart::src::abi::abi_types.dart::FunctionType--><!--MD5=[18be7f926f96b0840c7605a5c2bb1465]
link znn_sdk_dart::src::abi::abi_types.dart::TokenStandardType to znn_sdk_dart::src::abi::abi_types.dart::NumericType--><!--MD5=[cd8886d757621af8e1c12075d1c9de11]
link znn_sdk_dart::src::abi::abi_types.dart::NumericType to znn_sdk_dart::src::abi::abi_types.dart::AddressType--><!--MD5=[8c282c2a0e8a7f46ced8a22cad314d7c]
@startuml abi
'default
left to right direction
skinparam ClassFontSize 10
skinparam PackageFontSize 15
skinparam ClassBorderThickness 2
skinparam PackageBorderThickness 3
skinparam arrowThickness 3
set namespaceSeparator ::

class "znn_sdk_dart::src::abi::abi.dart::TypeEnum" {
  +int index
  {static} +List<TypeEnum> values
  {static} +TypeEnum function
}

"znn_sdk_dart::src::abi::abi.dart::TypeEnum" o- - "znn_sdk_dart::src::abi::abi.dart::TypeEnum"

class "znn_sdk_dart::src::abi::abi.dart::Param" {
  +bool indexed
  +String? name
  +AbiType type
  {static} +List<dynamic> decodeList()
  +String toString()
}

"znn_sdk_dart::src::abi::abi.dart::Param" o- - "znn_sdk_dart::src::abi::abi_types.dart::AbiType"

class "znn_sdk_dart::src::abi::abi.dart::Entry" {
  +String? name
  +List<Param>? inputs
  +TypeEnum? type
  +String formatSignature()
  +List<int> fingerprintSignature()
  +List<int> encodeSignature()
  +List<int> encodeArguments()
}

"znn_sdk_dart::src::abi::abi.dart::Entry" o- - "znn_sdk_dart::src::abi::abi.dart::TypeEnum"

class "znn_sdk_dart::src::abi::abi.dart::AbiFunction" {
  {static} +int ENCODED_SIGN_LENGTH
  +List<dynamic> decode()
  +List<int> encode()
  +List<int> encodeSignature()
  {static} +List<int> extractSignature()
  +String toString()
}

class "znn_sdk_dart::src::abi::abi.dart::Abi" {
  +List<Entry> entries
  {static} -List<Entry> _parseEntries()
  +List<int> encodeFunction()
  +dynamic decodeFunction()
  +String toString()
}

class "znn_sdk_dart::src::abi::abi_types.dart::IntType" {
  +String? getCanonicalName()
  {static} +List<int> encodeInt()
  {static} +List<int> encodeIntBig()
  {static} +BigInt decodeInt()
  +List<int> encode()
  +dynamic decode()
}

abstract class "znn_sdk_dart::src::abi::abi_types.dart::ArrayType" {
  +dynamic elementType
  {static} +ArrayType getType()
  +AbiType? getElementType()
  +List<int> encode()
  +List<int> encodeTuple()
  +dynamic decodeTuple()
  +List<int> encodeList()
}

class "znn_sdk_dart::src::abi::abi_types.dart::StaticArrayType" {
  +dynamic size
  +String? getCanonicalName()
  +List<int> encodeList()
  +dynamic decode()
  +int? getFixedSize()
}

class "znn_sdk_dart::src::abi::abi_types.dart::DynamicArrayType" {
  +String? getCanonicalName()
  +List<int> encodeList()
  +dynamic decode()
  +bool isDynamicType()
}

class "znn_sdk_dart::src::abi::abi_types.dart::BytesType" {
  +List<int> encode()
  +dynamic decode()
  +bool isDynamicType()
}

class "znn_sdk_dart::src::abi::abi_types.dart::StringType" {
  +List<int> encode()
  +dynamic decode()
}

class "znn_sdk_dart::src::abi::abi_types.dart::Bytes32Type" {
  +List<int> encode()
  +dynamic decode()
}

class "znn_sdk_dart::src::abi::abi_types.dart::HashType" {
  +List<int> encode()
  +dynamic decode()
}

class "znn_sdk_dart::src::abi::abi_types.dart::TokenStandardType" {
  +List<int> encode()
  +dynamic decode()
}

class "znn_sdk_dart::src::abi::abi_types.dart::UnsignedIntType" {
  +String? getCanonicalName()
  {static} +BigInt decodeInt()
  {static} +List<int> encodeInt()
  {static} +List<int> encodeIntBig()
  +List<int> encode()
  +dynamic decode()
}

class "znn_sdk_dart::src::abi::abi_types.dart::BoolType" {
  +List<int> encode()
  +dynamic decode()
}

class "znn_sdk_dart::src::abi::abi_types.dart::FunctionType" {
  +List<int> encode()
  +dynamic decode()
}

abstract class "znn_sdk_dart::src::abi::abi_types.dart::NumericType" {
  +BigInt encodeInternal()
}

class "znn_sdk_dart::src::abi::abi_types.dart::AddressType" {
  +List<int> encode()
  +dynamic decode()
}

abstract class "znn_sdk_dart::src::abi::abi_types.dart::AbiType" {
  {static} +int Int32Size
  +String? name
  +String? getName()
  +String? getCanonicalName()
  {static} +AbiType getType()
  +List<int> encode()
  +dynamic decode()
  +int? getFixedSize()
  +bool isDynamicType()
  +String toString()
}


@enduml

@startuml abi
left to right direction
skinparam ClassFontSize 10
skinparam PackageFontSize 15
skinparam ClassBorderThickness 2
skinparam PackageBorderThickness 3
skinparam arrowThickness 3
set namespaceSeparator ::

class "znn_sdk_dart::src::abi::abi.dart::TypeEnum" {
  +int index
  {static} +List<TypeEnum> values
  {static} +TypeEnum function
}

"znn_sdk_dart::src::abi::abi.dart::TypeEnum" o- - "znn_sdk_dart::src::abi::abi.dart::TypeEnum"

class "znn_sdk_dart::src::abi::abi.dart::Param" {
  +bool indexed
  +String? name
  +AbiType type
  {static} +List<dynamic> decodeList()
  +String toString()
}

"znn_sdk_dart::src::abi::abi.dart::Param" o- - "znn_sdk_dart::src::abi::abi_types.dart::AbiType"

class "znn_sdk_dart::src::abi::abi.dart::Entry" {
  +String? name
  +List<Param>? inputs
  +TypeEnum? type
  +String formatSignature()
  +List<int> fingerprintSignature()
  +List<int> encodeSignature()
  +List<int> encodeArguments()
}

"znn_sdk_dart::src::abi::abi.dart::Entry" o- - "znn_sdk_dart::src::abi::abi.dart::TypeEnum"

class "znn_sdk_dart::src::abi::abi.dart::AbiFunction" {
  {static} +int ENCODED_SIGN_LENGTH
  +List<dynamic> decode()
  +List<int> encode()
  +List<int> encodeSignature()
  {static} +List<int> extractSignature()
  +String toString()
}

class "znn_sdk_dart::src::abi::abi.dart::Abi" {
  +List<Entry> entries
  {static} -List<Entry> _parseEntries()
  +List<int> encodeFunction()
  +dynamic decodeFunction()
  +String toString()
}

class "znn_sdk_dart::src::abi::abi_types.dart::IntType" {
  +String? getCanonicalName()
  {static} +List<int> encodeInt()
  {static} +List<int> encodeIntBig()
  {static} +BigInt decodeInt()
  +List<int> encode()
  +dynamic decode()
}

abstract class "znn_sdk_dart::src::abi::abi_types.dart::ArrayType" {
  +dynamic elementType
  {static} +ArrayType getType()
  +AbiType? getElementType()
  +List<int> encode()
  +List<int> encodeTuple()
  +dynamic decodeTuple()
  +List<int> encodeList()
}

class "znn_sdk_dart::src::abi::abi_types.dart::StaticArrayType" {
  +dynamic size
  +String? getCanonicalName()
  +List<int> encodeList()
  +dynamic decode()
  +int? getFixedSize()
}

class "znn_sdk_dart::src::abi::abi_types.dart::DynamicArrayType" {
  +String? getCanonicalName()
  +List<int> encodeList()
  +dynamic decode()
  +bool isDynamicType()
}

class "znn_sdk_dart::src::abi::abi_types.dart::BytesType" {
  +List<int> encode()
  +dynamic decode()
  +bool isDynamicType()
}

class "znn_sdk_dart::src::abi::abi_types.dart::StringType" {
  +List<int> encode()
  +dynamic decode()
}

class "znn_sdk_dart::src::abi::abi_types.dart::Bytes32Type" {
  +List<int> encode()
  +dynamic decode()
}

class "znn_sdk_dart::src::abi::abi_types.dart::HashType" {
  +List<int> encode()
  +dynamic decode()
}

class "znn_sdk_dart::src::abi::abi_types.dart::TokenStandardType" {
  +List<int> encode()
  +dynamic decode()
}

class "znn_sdk_dart::src::abi::abi_types.dart::UnsignedIntType" {
  +String? getCanonicalName()
  {static} +BigInt decodeInt()
  {static} +List<int> encodeInt()
  {static} +List<int> encodeIntBig()
  +List<int> encode()
  +dynamic decode()
}

class "znn_sdk_dart::src::abi::abi_types.dart::BoolType" {
  +List<int> encode()
  +dynamic decode()
}

class "znn_sdk_dart::src::abi::abi_types.dart::FunctionType" {
  +List<int> encode()
  +dynamic decode()
}

abstract class "znn_sdk_dart::src::abi::abi_types.dart::NumericType" {
  +BigInt encodeInternal()
}

class "znn_sdk_dart::src::abi::abi_types.dart::AddressType" {
  +List<int> encode()
  +dynamic decode()
}

abstract class "znn_sdk_dart::src::abi::abi_types.dart::AbiType" {
  {static} +int Int32Size
  +String? name
  +String? getName()
  +String? getCanonicalName()
  {static} +AbiType getType()
  +List<int> encode()
  +dynamic decode()
  +int? getFixedSize()
  +bool isDynamicType()
  +String toString()
}


@enduml

PlantUML version 1.2021.7(Sun May 23 14:40:07 CEST 2021)
(GPL source distribution)
Java Runtime: Java(TM) SE Runtime Environment
JVM: Java HotSpot(TM) 64-Bit Server VM
Default Encoding: Cp1252
Language: en
Country: NZ
--></g></svg>